<mxfile host="app.diagrams.net" modified="2023-05-15T13:00:53.520Z" agent="Mozilla/5.0 (Macintosh; Intel Mac OS X 10_15_7) AppleWebKit/537.36 (KHTML, like Gecko) Chrome/113.0.0.0 Safari/537.36" etag="ew2qzAV0rry2da_E72af" version="21.2.9" type="github" pages="2">
  <diagram name="第 1 页" id="J9_rgFnKOOP4bvDomTlF">
    <mxGraphModel dx="1026" dy="579" grid="1" gridSize="10" guides="1" tooltips="1" connect="1" arrows="1" fold="1" page="1" pageScale="1" pageWidth="10000" pageHeight="10000" math="0" shadow="0">
      <root>
        <mxCell id="0" />
        <mxCell id="1" parent="0" />
        <mxCell id="2f9m-vgJkZ_a6fvkAveH-6" value="" style="endArrow=none;dashed=1;html=1;rounded=0;" edge="1" parent="1">
          <mxGeometry width="50" height="50" relative="1" as="geometry">
            <mxPoint x="120" y="410" as="sourcePoint" />
            <mxPoint x="120.62111801242236" y="409.4099378881988" as="targetPoint" />
          </mxGeometry>
        </mxCell>
        <mxCell id="2f9m-vgJkZ_a6fvkAveH-12" value="" style="triangle;whiteSpace=wrap;html=1;rotation=-90;" vertex="1" parent="1">
          <mxGeometry x="130" y="140" width="190" height="280" as="geometry" />
        </mxCell>
        <mxCell id="2f9m-vgJkZ_a6fvkAveH-13" value="" style="endArrow=none;dashed=1;html=1;rounded=0;entryX=0.242;entryY=0.879;entryDx=0;entryDy=0;entryPerimeter=0;" edge="1" parent="1" target="2f9m-vgJkZ_a6fvkAveH-12">
          <mxGeometry width="50" height="50" relative="1" as="geometry">
            <mxPoint x="120" y="330" as="sourcePoint" />
            <mxPoint x="225" y="280" as="targetPoint" />
          </mxGeometry>
        </mxCell>
        <mxCell id="2f9m-vgJkZ_a6fvkAveH-14" value="线索" style="text;html=1;strokeColor=none;fillColor=none;align=center;verticalAlign=middle;whiteSpace=wrap;rounded=0;" vertex="1" parent="1">
          <mxGeometry x="177.5" y="340" width="95" height="30" as="geometry" />
        </mxCell>
        <mxCell id="2f9m-vgJkZ_a6fvkAveH-15" value="" style="endArrow=none;dashed=1;html=1;rounded=0;entryX=0.458;entryY=0.771;entryDx=0;entryDy=0;entryPerimeter=0;" edge="1" parent="1" target="2f9m-vgJkZ_a6fvkAveH-12">
          <mxGeometry width="50" height="50" relative="1" as="geometry">
            <mxPoint x="150" y="290" as="sourcePoint" />
            <mxPoint x="200" y="240" as="targetPoint" />
          </mxGeometry>
        </mxCell>
        <mxCell id="2f9m-vgJkZ_a6fvkAveH-16" value="客户" style="text;html=1;strokeColor=none;fillColor=none;align=center;verticalAlign=middle;whiteSpace=wrap;rounded=0;" vertex="1" parent="1">
          <mxGeometry x="195" y="290" width="60" height="30" as="geometry" />
        </mxCell>
        <mxCell id="2f9m-vgJkZ_a6fvkAveH-17" value="商机" style="text;html=1;strokeColor=none;fillColor=none;align=center;verticalAlign=middle;whiteSpace=wrap;rounded=0;" vertex="1" parent="1">
          <mxGeometry x="195" y="240" width="60" height="30" as="geometry" />
        </mxCell>
        <mxCell id="2f9m-vgJkZ_a6fvkAveH-18" value="" style="endArrow=classic;html=1;rounded=0;" edge="1" parent="1">
          <mxGeometry width="50" height="50" relative="1" as="geometry">
            <mxPoint x="290" y="250" as="sourcePoint" />
            <mxPoint x="500" y="250" as="targetPoint" />
          </mxGeometry>
        </mxCell>
        <mxCell id="2f9m-vgJkZ_a6fvkAveH-19" value="商机签约，触发会员注册，生成商户号与合同" style="text;html=1;strokeColor=none;fillColor=none;align=center;verticalAlign=middle;whiteSpace=wrap;rounded=0;" vertex="1" parent="1">
          <mxGeometry x="350" y="220" width="150" height="20" as="geometry" />
        </mxCell>
        <mxCell id="2f9m-vgJkZ_a6fvkAveH-20" value="Text" style="text;html=1;strokeColor=none;fillColor=none;align=center;verticalAlign=middle;whiteSpace=wrap;rounded=0;" vertex="1" parent="1">
          <mxGeometry x="490" y="280" width="60" height="30" as="geometry" />
        </mxCell>
        <mxCell id="2f9m-vgJkZ_a6fvkAveH-21" value="合同：商户号+产品+支付方式+费用配置" style="text;html=1;strokeColor=none;fillColor=none;align=center;verticalAlign=middle;whiteSpace=wrap;rounded=0;" vertex="1" parent="1">
          <mxGeometry x="600" y="150" width="230" height="30" as="geometry" />
        </mxCell>
      </root>
    </mxGraphModel>
  </diagram>
  <diagram id="ZrLgpqp3N7W9zlJU38V0" name="第 2 页">
    <mxGraphModel dx="1026" dy="579" grid="1" gridSize="10" guides="1" tooltips="1" connect="1" arrows="1" fold="1" page="1" pageScale="1" pageWidth="10000" pageHeight="10000" math="0" shadow="0">
      <root>
        <mxCell id="0" />
        <mxCell id="1" parent="0" />
        <mxCell id="oFQXYUoa-ESAPFcw9l6I-23" value="" style="group" vertex="1" connectable="0" parent="1">
          <mxGeometry x="350" y="520" width="895" height="190" as="geometry" />
        </mxCell>
        <mxCell id="oFQXYUoa-ESAPFcw9l6I-1" value="PageQuery" style="swimlane;fontStyle=1;align=center;verticalAlign=top;childLayout=stackLayout;horizontal=1;startSize=26;horizontalStack=0;resizeParent=1;resizeParentMax=0;resizeLast=0;collapsible=1;marginBottom=0;whiteSpace=wrap;html=1;" vertex="1" parent="oFQXYUoa-ESAPFcw9l6I-23">
          <mxGeometry width="210" height="140" as="geometry" />
        </mxCell>
        <mxCell id="oFQXYUoa-ESAPFcw9l6I-2" value="+ queryTempl:&amp;nbsp; &amp;nbsp; &amp;nbsp; &amp;nbsp; &amp;nbsp; &amp;nbsp; &amp;nbsp; &amp;nbsp; &amp;nbsp;QueryTempl&lt;br&gt;+ pageIndex:&amp;nbsp; &amp;nbsp; &amp;nbsp; &amp;nbsp; &amp;nbsp; &amp;nbsp; &amp;nbsp; &amp;nbsp; &amp;nbsp; &amp;nbsp;Long&lt;br&gt;+ orderBy:&amp;nbsp; &amp;nbsp; &amp;nbsp; &amp;nbsp; &amp;nbsp; &amp;nbsp; &amp;nbsp; &amp;nbsp; &amp;nbsp; &amp;nbsp; &amp;nbsp; &amp;nbsp;Object&lt;br&gt;+ pageSize:&amp;nbsp; &amp;nbsp; &amp;nbsp; &lt;span style=&quot;white-space: pre;&quot;&gt;	&lt;/span&gt;&lt;span style=&quot;white-space: pre;&quot;&gt;	&lt;/span&gt;Long&lt;br style=&quot;border-color: var(--border-color);&quot;&gt;&amp;nbsp;" style="text;strokeColor=none;fillColor=none;align=left;verticalAlign=top;spacingLeft=4;spacingRight=4;overflow=hidden;rotatable=0;points=[[0,0.5],[1,0.5]];portConstraint=eastwest;whiteSpace=wrap;html=1;" vertex="1" parent="oFQXYUoa-ESAPFcw9l6I-1">
          <mxGeometry y="26" width="210" height="64" as="geometry" />
        </mxCell>
        <mxCell id="oFQXYUoa-ESAPFcw9l6I-3" value="" style="line;strokeWidth=1;fillColor=none;align=left;verticalAlign=middle;spacingTop=-1;spacingLeft=3;spacingRight=3;rotatable=0;labelPosition=right;points=[];portConstraint=eastwest;strokeColor=inherit;" vertex="1" parent="oFQXYUoa-ESAPFcw9l6I-1">
          <mxGeometry y="90" width="210" height="8" as="geometry" />
        </mxCell>
        <mxCell id="oFQXYUoa-ESAPFcw9l6I-4" value="+ getOrderBy(): Map&amp;lt;String,String&amp;gt;" style="text;strokeColor=none;fillColor=none;align=left;verticalAlign=top;spacingLeft=4;spacingRight=4;overflow=hidden;rotatable=0;points=[[0,0.5],[1,0.5]];portConstraint=eastwest;whiteSpace=wrap;html=1;" vertex="1" parent="oFQXYUoa-ESAPFcw9l6I-1">
          <mxGeometry y="98" width="210" height="42" as="geometry" />
        </mxCell>
        <mxCell id="oFQXYUoa-ESAPFcw9l6I-6" value="1" style="endArrow=open;html=1;endSize=12;startArrow=diamondThin;startSize=14;startFill=1;edgeStyle=orthogonalEdgeStyle;align=left;verticalAlign=bottom;rounded=0;" edge="1" parent="oFQXYUoa-ESAPFcw9l6I-23">
          <mxGeometry x="-1" y="3" relative="1" as="geometry">
            <mxPoint x="210" y="70" as="sourcePoint" />
            <mxPoint x="330" y="70" as="targetPoint" />
          </mxGeometry>
        </mxCell>
        <mxCell id="oFQXYUoa-ESAPFcw9l6I-7" value="1" style="text;html=1;align=center;verticalAlign=middle;resizable=0;points=[];autosize=1;strokeColor=none;fillColor=none;" vertex="1" parent="oFQXYUoa-ESAPFcw9l6I-23">
          <mxGeometry x="300" y="40" width="30" height="30" as="geometry" />
        </mxCell>
        <mxCell id="oFQXYUoa-ESAPFcw9l6I-8" value="QueryTempl" style="swimlane;fontStyle=1;align=center;verticalAlign=top;childLayout=stackLayout;horizontal=1;startSize=26;horizontalStack=0;resizeParent=1;resizeParentMax=0;resizeLast=0;collapsible=1;marginBottom=0;whiteSpace=wrap;html=1;" vertex="1" parent="oFQXYUoa-ESAPFcw9l6I-23">
          <mxGeometry x="330" width="280" height="190" as="geometry" />
        </mxCell>
        <mxCell id="oFQXYUoa-ESAPFcw9l6I-9" value="+ groups: &lt;span style=&quot;white-space: pre;&quot;&gt;	&lt;/span&gt;&lt;span style=&quot;white-space: pre;&quot;&gt;	&lt;span style=&quot;white-space: pre;&quot;&gt;	&lt;/span&gt;&lt;span style=&quot;white-space: pre;&quot;&gt;	&lt;/span&gt;&lt;/span&gt;List&amp;lt;QueryTempl&amp;gt;&lt;br&gt;+ groupLogic:&lt;span style=&quot;white-space: pre;&quot;&gt;	&lt;/span&gt;&lt;span style=&quot;white-space: pre;&quot;&gt;	&lt;span style=&quot;white-space: pre;&quot;&gt;	&lt;/span&gt;&lt;span style=&quot;white-space: pre;&quot;&gt;	&lt;/span&gt;&lt;/span&gt;String&lt;br&gt;+ items:&lt;span style=&quot;white-space: pre;&quot;&gt;	&lt;/span&gt;&lt;span style=&quot;white-space: pre;&quot;&gt;	&lt;/span&gt;&lt;span style=&quot;white-space: pre;&quot;&gt;	&lt;span style=&quot;white-space: pre;&quot;&gt;	&lt;/span&gt;&lt;span style=&quot;white-space: pre;&quot;&gt;	&lt;/span&gt;&lt;/span&gt;List&amp;lt;QueryField&amp;gt;&lt;br&gt;+ itemLogic:&lt;span style=&quot;white-space: pre;&quot;&gt;	&lt;/span&gt;&lt;span style=&quot;white-space: pre;&quot;&gt;	&lt;span style=&quot;white-space: pre;&quot;&gt;	&lt;/span&gt;&lt;span style=&quot;white-space: pre;&quot;&gt;	&lt;/span&gt;&lt;/span&gt;String" style="text;strokeColor=none;fillColor=none;align=left;verticalAlign=top;spacingLeft=4;spacingRight=4;overflow=hidden;rotatable=0;points=[[0,0.5],[1,0.5]];portConstraint=eastwest;whiteSpace=wrap;html=1;" vertex="1" parent="oFQXYUoa-ESAPFcw9l6I-8">
          <mxGeometry y="26" width="280" height="74" as="geometry" />
        </mxCell>
        <mxCell id="oFQXYUoa-ESAPFcw9l6I-10" value="" style="line;strokeWidth=1;fillColor=none;align=left;verticalAlign=middle;spacingTop=-1;spacingLeft=3;spacingRight=3;rotatable=0;labelPosition=right;points=[];portConstraint=eastwest;strokeColor=inherit;" vertex="1" parent="oFQXYUoa-ESAPFcw9l6I-8">
          <mxGeometry y="100" width="280" height="8" as="geometry" />
        </mxCell>
        <mxCell id="oFQXYUoa-ESAPFcw9l6I-11" value="+ canBuildQuery(): &lt;span style=&quot;white-space: pre;&quot;&gt;	&lt;/span&gt;&lt;span style=&quot;white-space: pre;&quot;&gt;	&lt;/span&gt;&lt;span style=&quot;white-space: pre;&quot;&gt;	&lt;/span&gt;&lt;span style=&quot;white-space: pre;&quot;&gt;	&lt;/span&gt;&lt;span style=&quot;white-space: pre;&quot;&gt;	&lt;/span&gt;											Boolean&lt;br&gt;+&amp;nbsp;recursiveCanBuildQuery(QueryTmpl&lt;span style=&quot;background-color: initial;&quot;&gt;):&lt;/span&gt;&lt;span style=&quot;background-color: initial;&quot;&gt;	&lt;/span&gt;&lt;span style=&quot;background-color: initial;&quot;&gt;&amp;nbsp;Boolean&lt;/span&gt;&lt;br&gt;+ buildQuery(Class&amp;lt;T&amp;gt;&lt;span style=&quot;background-color: initial;&quot;&gt;):&amp;nbsp;&lt;span style=&quot;white-space: pre;&quot;&gt;	&lt;/span&gt;&lt;span style=&quot;white-space: pre;&quot;&gt;	&lt;/span&gt;&lt;/span&gt;QueryWrapper&lt;br&gt;+&amp;nbsp;checkSelfGroup(): &lt;span style=&quot;white-space: pre;&quot;&gt;	&lt;/span&gt;&lt;span style=&quot;white-space: pre;&quot;&gt;	&lt;/span&gt;&lt;span style=&quot;white-space: pre;&quot;&gt;	&lt;span style=&quot;white-space: pre;&quot;&gt;	&lt;/span&gt;&lt;/span&gt;Boolean&lt;br&gt;+&amp;nbsp;checkSelfItem(): &lt;span style=&quot;white-space: pre;&quot;&gt;	&lt;/span&gt;&lt;span style=&quot;white-space: pre;&quot;&gt;	&lt;/span&gt;&lt;span style=&quot;white-space: pre;&quot;&gt;	&lt;/span&gt;&lt;span style=&quot;white-space: pre;&quot;&gt;	&lt;span style=&quot;white-space: pre;&quot;&gt;	&lt;/span&gt;&lt;/span&gt;Boolean" style="text;strokeColor=none;fillColor=none;align=left;verticalAlign=top;spacingLeft=4;spacingRight=4;overflow=hidden;rotatable=0;points=[[0,0.5],[1,0.5]];portConstraint=eastwest;whiteSpace=wrap;html=1;" vertex="1" parent="oFQXYUoa-ESAPFcw9l6I-8">
          <mxGeometry y="108" width="280" height="82" as="geometry" />
        </mxCell>
        <mxCell id="oFQXYUoa-ESAPFcw9l6I-16" value="1" style="endArrow=open;html=1;endSize=12;startArrow=diamondThin;startSize=14;startFill=1;edgeStyle=orthogonalEdgeStyle;align=left;verticalAlign=bottom;rounded=0;" edge="1" parent="oFQXYUoa-ESAPFcw9l6I-23">
          <mxGeometry x="-1" y="3" relative="1" as="geometry">
            <mxPoint x="610" y="69" as="sourcePoint" />
            <mxPoint x="730" y="69" as="targetPoint" />
          </mxGeometry>
        </mxCell>
        <mxCell id="oFQXYUoa-ESAPFcw9l6I-17" value="*" style="text;html=1;align=center;verticalAlign=middle;resizable=0;points=[];autosize=1;strokeColor=none;fillColor=none;" vertex="1" parent="oFQXYUoa-ESAPFcw9l6I-23">
          <mxGeometry x="695" y="40" width="30" height="30" as="geometry" />
        </mxCell>
        <mxCell id="oFQXYUoa-ESAPFcw9l6I-18" value="items" style="text;html=1;align=center;verticalAlign=middle;resizable=0;points=[];autosize=1;strokeColor=none;fillColor=none;" vertex="1" parent="oFQXYUoa-ESAPFcw9l6I-23">
          <mxGeometry x="685" y="68" width="50" height="30" as="geometry" />
        </mxCell>
        <mxCell id="oFQXYUoa-ESAPFcw9l6I-19" value="QueryField" style="swimlane;fontStyle=1;align=center;verticalAlign=top;childLayout=stackLayout;horizontal=1;startSize=26;horizontalStack=0;resizeParent=1;resizeParentMax=0;resizeLast=0;collapsible=1;marginBottom=0;whiteSpace=wrap;html=1;" vertex="1" parent="oFQXYUoa-ESAPFcw9l6I-23">
          <mxGeometry x="735" width="160" height="114" as="geometry" />
        </mxCell>
        <mxCell id="oFQXYUoa-ESAPFcw9l6I-20" value="+ field: &lt;span style=&quot;white-space: pre;&quot;&gt;	&lt;/span&gt;&lt;span style=&quot;white-space: pre;&quot;&gt;	&lt;/span&gt;&lt;span style=&quot;white-space: pre;&quot;&gt;	&lt;/span&gt;String&lt;br&gt;+ match: &lt;span style=&quot;white-space: pre;&quot;&gt;	&lt;/span&gt;&lt;span style=&quot;white-space: pre;&quot;&gt;	&lt;/span&gt;&lt;span style=&quot;white-space: pre;&quot;&gt;	&lt;/span&gt;String&lt;br&gt;+ value: &lt;span style=&quot;white-space: pre;&quot;&gt;	&lt;/span&gt;&lt;span style=&quot;white-space: pre;&quot;&gt;	&lt;/span&gt;&lt;span style=&quot;white-space: pre;&quot;&gt;	&lt;/span&gt;Object" style="text;strokeColor=none;fillColor=none;align=left;verticalAlign=top;spacingLeft=4;spacingRight=4;overflow=hidden;rotatable=0;points=[[0,0.5],[1,0.5]];portConstraint=eastwest;whiteSpace=wrap;html=1;" vertex="1" parent="oFQXYUoa-ESAPFcw9l6I-19">
          <mxGeometry y="26" width="160" height="54" as="geometry" />
        </mxCell>
        <mxCell id="oFQXYUoa-ESAPFcw9l6I-21" value="" style="line;strokeWidth=1;fillColor=none;align=left;verticalAlign=middle;spacingTop=-1;spacingLeft=3;spacingRight=3;rotatable=0;labelPosition=right;points=[];portConstraint=eastwest;strokeColor=inherit;" vertex="1" parent="oFQXYUoa-ESAPFcw9l6I-19">
          <mxGeometry y="80" width="160" height="8" as="geometry" />
        </mxCell>
        <mxCell id="oFQXYUoa-ESAPFcw9l6I-22" value="+ method(type): type" style="text;strokeColor=none;fillColor=none;align=left;verticalAlign=top;spacingLeft=4;spacingRight=4;overflow=hidden;rotatable=0;points=[[0,0.5],[1,0.5]];portConstraint=eastwest;whiteSpace=wrap;html=1;" vertex="1" parent="oFQXYUoa-ESAPFcw9l6I-19">
          <mxGeometry y="88" width="160" height="26" as="geometry" />
        </mxCell>
        <mxCell id="oFQXYUoa-ESAPFcw9l6I-24" value="SqlKeyWord" style="swimlane;fontStyle=1;align=center;verticalAlign=top;childLayout=stackLayout;horizontal=1;startSize=26;horizontalStack=0;resizeParent=1;resizeParentMax=0;resizeLast=0;collapsible=1;marginBottom=0;whiteSpace=wrap;html=1;" vertex="1" parent="1">
          <mxGeometry x="600" y="770" width="430" height="130" as="geometry" />
        </mxCell>
        <mxCell id="oFQXYUoa-ESAPFcw9l6I-27" value="+ buildCondition(QueryTempl, QueryWrapper&amp;lt;T&amp;gt;): &lt;span style=&quot;white-space: pre;&quot;&gt;	&lt;/span&gt;&lt;span style=&quot;white-space: pre;&quot;&gt;	&lt;/span&gt;&lt;span style=&quot;white-space: pre;&quot;&gt;	&lt;/span&gt;&lt;span style=&quot;white-space: pre;&quot;&gt;	&lt;/span&gt;void&lt;br&gt;+ buildChildGroup(QueryTempl, QueryWrapper&amp;lt;T&amp;gt;): &lt;span style=&quot;white-space: pre;&quot;&gt;	&lt;/span&gt;&lt;span style=&quot;white-space: pre;&quot;&gt;	&lt;/span&gt;&lt;span style=&quot;white-space: pre;&quot;&gt;	&lt;/span&gt;&lt;span style=&quot;white-space: pre;&quot;&gt;	&lt;/span&gt;void&lt;br&gt;+ buildChildSelfItem(QueryLogic, QueryTempl, QueryWrapper&amp;lt;T&amp;gt;): &lt;span style=&quot;white-space: pre;&quot;&gt;	&lt;/span&gt;void&lt;br&gt;+ praseItemMatch(QueryField, QueryWrapper&amp;lt;T&amp;gt;): &lt;span style=&quot;white-space: pre;&quot;&gt;	&lt;/span&gt;&lt;span style=&quot;white-space: pre;&quot;&gt;	&lt;/span&gt;&lt;span style=&quot;white-space: pre;&quot;&gt;	&lt;/span&gt;&lt;span style=&quot;white-space: pre;&quot;&gt;	&lt;/span&gt;void&lt;br&gt;+ getColumn(String): &lt;span style=&quot;white-space: pre;&quot;&gt;	&lt;/span&gt;&lt;span style=&quot;white-space: pre;&quot;&gt;	&lt;/span&gt;&lt;span style=&quot;white-space: pre;&quot;&gt;	&lt;/span&gt;&lt;span style=&quot;white-space: pre;&quot;&gt;	&lt;/span&gt;&lt;span style=&quot;white-space: pre;&quot;&gt;	&lt;/span&gt;&lt;span style=&quot;white-space: pre;&quot;&gt;	&lt;/span&gt;&lt;span style=&quot;white-space: pre;&quot;&gt;	&lt;/span&gt;&lt;span style=&quot;white-space: pre;&quot;&gt;	&lt;/span&gt;&lt;span style=&quot;white-space: pre;&quot;&gt;	&lt;/span&gt;&lt;span style=&quot;white-space: pre;&quot;&gt;	&lt;/span&gt;String" style="text;strokeColor=none;fillColor=none;align=left;verticalAlign=top;spacingLeft=4;spacingRight=4;overflow=hidden;rotatable=0;points=[[0,0.5],[1,0.5]];portConstraint=eastwest;whiteSpace=wrap;html=1;container=1;" vertex="1" parent="oFQXYUoa-ESAPFcw9l6I-24">
          <mxGeometry y="26" width="430" height="104" as="geometry" />
        </mxCell>
        <mxCell id="oFQXYUoa-ESAPFcw9l6I-31" value="Use" style="endArrow=open;endSize=12;dashed=1;html=1;rounded=0;exitX=0.489;exitY=1;exitDx=0;exitDy=0;exitPerimeter=0;entryX=0.5;entryY=0;entryDx=0;entryDy=0;" edge="1" parent="1" source="oFQXYUoa-ESAPFcw9l6I-11" target="oFQXYUoa-ESAPFcw9l6I-24">
          <mxGeometry width="160" relative="1" as="geometry">
            <mxPoint x="740" y="750" as="sourcePoint" />
            <mxPoint x="810" y="760" as="targetPoint" />
          </mxGeometry>
        </mxCell>
        <mxCell id="oFQXYUoa-ESAPFcw9l6I-32" value="QueryCondition" style="swimlane;fontStyle=1;align=center;verticalAlign=top;childLayout=stackLayout;horizontal=1;startSize=26;horizontalStack=0;resizeParent=1;resizeParentMax=0;resizeLast=0;collapsible=1;marginBottom=0;whiteSpace=wrap;html=1;" vertex="1" parent="1">
          <mxGeometry x="625" y="320" width="390" height="120" as="geometry" />
        </mxCell>
        <mxCell id="oFQXYUoa-ESAPFcw9l6I-35" value="+ getPage&lt;span style=&quot;background-color: initial;&quot;&gt;(PageQuery): &lt;span style=&quot;white-space: pre;&quot;&gt;	&lt;/span&gt;&lt;span style=&quot;white-space: pre;&quot;&gt;	&lt;/span&gt;&lt;span style=&quot;white-space: pre;&quot;&gt;	&lt;/span&gt;&lt;span style=&quot;white-space: pre;&quot;&gt;	&lt;/span&gt;&lt;span style=&quot;white-space: pre;&quot;&gt;	&lt;/span&gt;&lt;span style=&quot;white-space: pre;&quot;&gt;	&lt;/span&gt;&lt;span style=&quot;white-space: pre;&quot;&gt;	&lt;/span&gt;&lt;span style=&quot;white-space: pre;&quot;&gt;	&lt;/span&gt;Ipage&amp;lt;T&amp;gt;&lt;br&gt;+ getQueryWrapper(Class&amp;lt;T&amp;gt;, QueryTempl):&amp;nbsp; &lt;span style=&quot;white-space: pre;&quot;&gt;	&lt;/span&gt;&amp;nbsp; QueryWrapper&amp;lt;T&amp;gt;&lt;br&gt;+ getQueryWrapper(Class&amp;lt;T&amp;gt;, PageQuery): &lt;span style=&quot;white-space: pre;&quot;&gt;	&lt;/span&gt;&amp;nbsp; QueryWrapper&amp;lt;T&amp;gt;&lt;br&gt;+ getQueryWrapper(T): &lt;span style=&quot;white-space: pre;&quot;&gt;	&lt;/span&gt;&lt;span style=&quot;white-space: pre;&quot;&gt;	&lt;/span&gt;&lt;span style=&quot;white-space: pre;&quot;&gt;	&lt;/span&gt;&lt;span style=&quot;white-space: pre;&quot;&gt;	&lt;/span&gt;&lt;span style=&quot;white-space: pre;&quot;&gt;	&lt;/span&gt;&lt;span style=&quot;white-space: pre;&quot;&gt;	&lt;/span&gt;&amp;nbsp; QueryWrapper&amp;lt;T&amp;gt;&lt;br&gt;+ getQueryWrapper(Class&amp;lt;T&amp;gt;):&lt;span style=&quot;white-space: pre;&quot;&gt;	&lt;/span&gt;&lt;span style=&quot;white-space: pre;&quot;&gt;	&lt;/span&gt;&lt;span style=&quot;white-space: pre;&quot;&gt;	&lt;/span&gt;&lt;span style=&quot;white-space: pre;&quot;&gt;	&lt;/span&gt;&amp;nbsp; QueryWrapper&amp;lt;T&amp;gt;&lt;br&gt;&lt;/span&gt;" style="text;strokeColor=none;fillColor=none;align=left;verticalAlign=top;spacingLeft=4;spacingRight=4;overflow=hidden;rotatable=0;points=[[0,0.5],[1,0.5]];portConstraint=eastwest;whiteSpace=wrap;html=1;" vertex="1" parent="oFQXYUoa-ESAPFcw9l6I-32">
          <mxGeometry y="26" width="390" height="94" as="geometry" />
        </mxCell>
        <mxCell id="oFQXYUoa-ESAPFcw9l6I-36" value="Use" style="endArrow=open;endSize=12;dashed=1;html=1;rounded=0;entryX=0.5;entryY=0;entryDx=0;entryDy=0;exitX=0.503;exitY=1.032;exitDx=0;exitDy=0;exitPerimeter=0;" edge="1" parent="1" source="oFQXYUoa-ESAPFcw9l6I-35" target="oFQXYUoa-ESAPFcw9l6I-8">
          <mxGeometry width="160" relative="1" as="geometry">
            <mxPoint x="804" y="440" as="sourcePoint" />
            <mxPoint x="820" y="510" as="targetPoint" />
          </mxGeometry>
        </mxCell>
      </root>
    </mxGraphModel>
  </diagram>
</mxfile>
